<?xml version="1.0" encoding="UTF-8" standalone="no" ?>

<!-- Created with Inkscape (http://www.inkscape.org/) -->

<svg xmlns:rdf="http://www.w3.org/1999/02/22-rdf-syntax-ns#" xmlns="http://www.w3.org/2000/svg" xml:space="preserve" version="1.1" xmlns:cc="http://creativecommons.org/ns#" xmlns:dc="http://purl.org/dc/elements/1.1/" viewBox="0 0 390 293.69186">
    <metadata>
        <rdf:RDF>
            <cc:Work rdf:about="">
                <dc:format>image/svg+xml</dc:format>
                <dc:type rdf:resource="http://purl.org/dc/dcmitype/StillImage" />
                <dc:title/>
            </cc:Work>
        </rdf:RDF>
    </metadata>
    <defs/>
    <path stroke-linejoin="round" d="M144.41715,181.81479c4.90814-10.01704,42.20236-88.285743-3.39334-105.670333-58.75646-6.8952-170.56857,113.189913-125.93386,171.614543,15.08818,13.13346,26.59841,12.76427,51.99692,4.62032,70.96165-24.27437,274.58956-206.248003,275.8926-247.136013-8.5458-13.09545-262.29749,283.626303-221.82709,283.626303,14.86013,0,120.93885-119.83536,136.77084-143.84371-13.49738,22.7596-61.65031,70.79799-29.75828,84.37665,19.43708,1.98713,40.45411-44.76995,59.92919-57.96313-11.80883,23.41654-20.28949,53.01705-5.18502,50.43814,17.55309-7.8942,19.04074-10.55455,25.5071-21.2394,1.81883,7.79646,10.20175,24.2798,20.59896,21.85291,13.00873-2.51377,35.96404-37.81503,46.86618-40.78486,5.86914,3.48017,10.32663,27.95543,9.08874,38.46112" stroke="#231f20" stroke-linecap="round" stroke-miterlimit="4" stroke-dasharray="none" stroke-width="9.64451408" fill="none" />
    <path stroke-linejoin="round" d="m312.71951,175.14491c-3.30648,2.82866-3.85484,6.91149,0.21717,6.78662" stroke="#231f20" stroke-linecap="round" stroke-miterlimit="4" stroke-dasharray="none" stroke-width="9.64451408" fill="none" />
</svg>
