<?xml version="1.0" encoding="UTF-8" standalone="no"?>
<!-- Created with Inkscape (http://www.inkscape.org/) -->

<svg
   xmlns:dc="http://purl.org/dc/elements/1.1/"
   xmlns:cc="http://creativecommons.org/ns#"
   xmlns:rdf="http://www.w3.org/1999/02/22-rdf-syntax-ns#"
   xmlns:svg="http://www.w3.org/2000/svg"
   xmlns="http://www.w3.org/2000/svg"
   xmlns:sodipodi="http://sodipodi.sourceforge.net/DTD/sodipodi-0.dtd"
   xmlns:inkscape="http://www.inkscape.org/namespaces/inkscape"
   xml:space="preserve"
   version="1.1"
   viewBox="0 0 100 80"
   id="svg2"
   inkscape:version="0.48.1 "
   width="100%"
   height="100%"
   sodipodi:docname="svg-orig.svg"><sodipodi:namedview
   pagecolor="#ffffff"
   bordercolor="#666666"
   borderopacity="1"
   objecttolerance="10"
   gridtolerance="10"
   guidetolerance="10"
   inkscape:pageopacity="0"
   inkscape:pageshadow="2"
   inkscape:window-width="640"
   inkscape:window-height="480"
   id="namedview12"
   showgrid="false"
   fit-margin-top="0"
   fit-margin-left="0"
   fit-margin-right="0"
   fit-margin-bottom="0"
   inkscape:zoom="0.94997526"
   inkscape:cx="195"
   inkscape:cy="51.053971"
   inkscape:window-x="100"
   inkscape:window-y="100"
   inkscape:window-maximized="0"
   inkscape:current-layer="svg2" />
    <metadata
   id="metadata4">
        <rdf:RDF>
            <cc:Work
   rdf:about="">
                <dc:format>image/svg+xml</dc:format>
                <dc:type
   rdf:resource="http://purl.org/dc/dcmitype/StillImage" />
                <dc:title></dc:title>
            </cc:Work>
        </rdf:RDF>
    </metadata>
    <defs
   id="defs6" />
    <path
   d="M 37.198449,48.732464 C 38.394698,46.291034 47.48433,27.214789 36.371398,22.977684 22.050826,21.297134 -5.2008741,50.565193 5.6778377,64.804889 9.355244,68.005876 12.160605,67.915894 18.350923,65.930989 35.646238,60.014654 85.275985,15.662653 85.593571,5.6971155 83.510724,2.5053926 21.664427,74.824681 31.528182,74.824681 c 3.621824,0 29.476138,-29.207188 33.334832,-35.058686 -3.289685,5.547143 -15.025884,17.255426 -7.252915,20.56492 4.737353,0.484319 9.859784,-10.911673 14.606399,-14.127216 -2.878138,5.707258 -4.945109,12.92172 -1.263733,12.293168 4.278173,-1.924034 4.640755,-2.572435 6.216785,-5.176628 0.443299,1.900213 2.486448,5.917658 5.020536,5.326158 3.170587,-0.612675 8.76543,-9.216568 11.422582,-9.940397 1.430472,0.848213 2.516885,6.81351 2.215177,9.374037"
   stroke-miterlimit="4"
   id="path8"
   inkscape:connector-curvature="0"
   style="fill:none;stroke:#231f20;stroke-width:2.35063457;stroke-linecap:round;stroke-linejoin:round;stroke-miterlimit:4;stroke-dasharray:none" />
    <path
   d="m 78.218383,47.10683 c -0.80588,0.689422 -0.939531,1.684521 0.05293,1.654086"
   stroke-miterlimit="4"
   id="path10"
   inkscape:connector-curvature="0"
   style="fill:none;stroke:#231f20;stroke-width:2.35063457;stroke-linecap:round;stroke-linejoin:round;stroke-miterlimit:4;stroke-dasharray:none" />
</svg>